# xmcd
#
# Track frame offsets: 
#        150
#        18200
#        33155
#        49275
#        61647
#        87087
#        97996
#        110016
#        118185
#        137296
#        151242
#        166299
#        185244
#
# Disc length: 2625 seconds
#
# Revision: 2
# Processed by: cddbd v1.5.2PL0 Copyright (c) Steve Scherf et al.
# Submitted via: ExactAudioCopyFreeDBPlugin 1.0
#
DISCID=9d0a3f0d
DTITLE=Various Artist - Blues Roots (a Tomato blues package)
DYEAR=2002
DGENRE=Blues
TTITLE0=Fred McDowell - Frisco Lines
TTITLE1=Joe Callicott - Fare You Well Baby Blues
TTITLE2=R. L. Burnside - Long Haired Doney
TTITLE3=Joe Williams - Mean Stepfather
TTITLE4=Bukka White - Bald Eagle Train
TTITLE5=R. C. Smith - Don't Drive Me Away
TTITLE6=Mance Lipscomb - Long Tall Girl Got Stuck On Me
TTITLE7=Lil' Son Jackson - Red River Blues
TTITLE8=Black Ace - I Am the Black Ace
TTITLE9=Alex Moore - Whistling Alex Moore Blues
TTITLE10=Lowell Fulson - Texas Blues
TTITLE11=Robert Shaw - The Ma Grinder
TTITLE12=Lightin' Hopkins - Take a Walk
EXTD=
EXTT0=
EXTT1=
EXTT2=
EXTT3=
EXTT4=
EXTT5=
EXTT6=
EXTT7=
EXTT8=
EXTT9=
EXTT10=
EXTT11=
EXTT12=
PLAYORDER=
